<svg width="391" height="341" viewBox="0 0 391 341" fill="none" xmlns="http://www.w3.org/2000/svg">
<g clip-path="url(#clip0_1390_1731)">
<path d="M-137 169.334V502.667H196.333H529.667V169.334V-164H196.333H-137V169.334ZM220.333 72.8003C225.133 73.867 234.733 77.6003 241.667 80.9336C252.467 86.267 256.2 89.067 267.133 99.867C277.933 110.8 280.733 114.534 286.067 125.334C289.4 132.267 293.267 142.134 294.467 147.334C297.667 160.534 297.4 183.067 293.933 196.134C283.133 236.667 249.667 265.6 207.667 270.934C143.933 278.934 88.0667 223.067 96.0667 159.334C103.8 98.267 160.2 59.067 220.333 72.8003Z" fill="black"/>
<path d="M185.867 88.5477C157.6 92.4144 133.467 109.481 120.8 134.681C113.867 148.281 112 156.948 112 173.214C112.133 185.614 112.667 189.481 115.733 198.548C125.067 225.481 143.6 244.014 170.533 253.348C179.6 256.414 183.467 256.948 195.867 257.081C212.133 257.081 220.8 255.214 234.4 248.281C255.867 237.481 272.533 216.948 278.533 193.881C281.467 182.681 281.6 163.748 278.667 152.548C270.933 122.281 246.533 97.6144 217.2 90.681C206.533 88.1477 194.8 87.3477 185.867 88.5477ZM232.533 111.214C235.733 114.414 235.867 117.614 233.067 121.614C231.333 124.148 229.867 124.548 221.733 124.548C211.6 124.548 206 126.548 202.667 131.481C200.8 134.014 200.533 140.281 200.533 172.948V211.348L197.2 214.548C193.467 218.414 191.6 218.681 187.467 215.748C184.667 213.881 184.533 212.681 184.4 197.481C184.4 188.548 183.733 179.081 182.8 176.548C180.933 171.214 173.733 165.881 168.4 165.881C164.133 165.881 159.2 161.748 159.2 158.148C159.2 156.814 160.133 154.414 161.333 152.814C163.733 149.214 170.667 148.814 179.067 151.881L184.533 153.748V143.081C184.533 131.214 186.667 124.681 192.267 118.814C199.2 111.481 206.533 108.814 220.267 108.681C228.133 108.548 230.267 108.948 232.533 111.214ZM231.733 151.614C235.2 154.148 234.933 160.548 231.2 163.481C226.8 167.081 212.133 166.814 208.533 163.214C205.333 160.014 205.067 155.614 208.133 152.281C209.867 150.414 212.267 149.881 219.867 149.881C225.6 149.881 230.267 150.548 231.733 151.614ZM171.467 177.481C173.6 179.348 173.867 181.881 173.867 196.814C173.867 216.148 175.067 220.281 182.267 224.548C185.467 226.548 188.933 227.214 196.933 227.214C208 227.214 212.533 229.481 212.533 235.214C212.533 236.681 211.333 239.081 209.867 240.548C207.6 242.814 205.467 243.214 195.6 243.214C177.6 243.214 166.933 237.081 160.667 223.214C158.267 218.148 157.867 214.414 157.867 198.681C157.867 183.214 158.267 179.614 160.133 177.614C162.8 174.681 168.267 174.548 171.467 177.481Z" fill="black"/>
</g>
<defs>
<clipPath id="clip0_1390_1731">
<rect width="391" height="341" fill="white"/>
</clipPath>
</defs>
</svg>
